<svg width="16" height="16" viewBox="0 0 16 16" fill="none" xmlns="http://www.w3.org/2000/svg">
<path d="M8 0C5.87827 0 3.84344 0.842855 2.34315 2.34315C0.842855 3.84344 0 5.87827 0 8C0 10.1217 0.842855 12.1566 2.34315 13.6569C3.84344 15.1571 5.87827 16 8 16C10.1217 16 12.1566 15.1571 13.6569 13.6569C15.1571 12.1566 16 10.1217 16 8C16 5.87827 15.1571 3.84344 13.6569 2.34315C12.1566 0.842855 10.1217 0 8 0Z" fill="#4AD967"/>
<path d="M11.8181 3.63636L13.0909 4.88309L7.04542 12.3636L2.90906 8L4.18178 6.75327L7.04542 9.55843L11.8181 3.63636Z" fill="white"/>
<path fill-rule="evenodd" clip-rule="evenodd" d="M13.0909 4.88309L11.8181 3.63636L7.04542 9.55843L4.18178 6.75327L2.90906 8L7.04542 12.3636L13.0909 4.88309Z" fill="white"/>
</svg>
